<svg width="148" height="103" viewBox="0 0 148 103" fill="none" xmlns="http://www.w3.org/2000/svg">
<path d="M143.989 16.1064C142.294 9.80918 137.328 4.84404 131.031 3.14862C119.527 0 73.5083 0 73.5083 0C73.5083 0 27.4899 0 15.9853 3.02752C9.80917 4.72294 4.72294 9.80918 3.02752 16.1064C0 27.611 0 51.4679 0 51.4679C0 51.4679 0 75.4459 3.02752 86.8294C4.72294 93.1266 9.68807 98.0918 15.9853 99.7872C27.611 102.936 73.5083 102.936 73.5083 102.936C73.5083 102.936 119.527 102.936 131.031 99.9083C137.328 98.2129 142.294 93.2477 143.989 86.9505C147.017 75.4459 147.017 51.589 147.017 51.589C147.017 51.589 147.138 27.611 143.989 16.1064V16.1064Z" fill="#FF0000"/>
<path d="M58.8551 29.4275V73.5083L97.123 51.4679L58.8551 29.4275Z" fill="white"/>
</svg>
